<svg width="1496" height="345" viewBox="0 0 1496 345" fill="none" xmlns="http://www.w3.org/2000/svg">
<g clip-path="url(#clip0_4061_38109)">
<path d="M794.932 147.266H794.698C790.341 137.112 777.757 126.221 756.946 126.221C723.083 126.221 698.887 149.931 698.887 189.609C698.887 229.287 723.317 253.483 757.18 253.483C778.712 253.483 789.837 242.843 794.68 230.998H794.914V245.994C794.914 267.291 784.022 277.445 764.435 277.445C747.981 277.445 737.107 271.63 734.208 258.092H703.729C707.114 282.774 729.87 301.155 764.939 301.155C798.083 301.155 827.589 284.448 827.589 241.637V129.605H794.95V147.266H794.932ZM763.949 229.053C741.446 229.053 730.068 210.42 730.068 189.861C730.068 169.302 741.68 150.921 763.949 150.921C786.219 150.921 797.813 171.966 797.813 189.861C797.813 207.756 788.613 229.053 763.949 229.053Z" fill="#7FC8FF"/>
<path d="M553.937 178.988C553.937 148.257 539.427 125.753 500.216 125.753C467.307 125.753 450.168 147.32 446.532 167.862H475.804C478.955 156.25 488.154 148.995 500.486 148.995C514.745 148.995 523.458 154.792 523.458 164.711C523.458 175.351 515.717 177.781 499.514 180.194C482.087 182.84 440.969 186.225 440.969 220.592C440.969 241.638 457.423 258.092 484.752 258.092C508.462 258.092 518.867 245.508 523.944 235.607H524.196V241.89C524.196 245.994 524.448 250.603 525.168 254.708H556.367C554.657 246.714 553.955 233.896 553.955 224.229V178.988H553.937ZM523.944 196.666C523.944 225.705 509.2 235.121 493.231 235.121C479.207 235.121 471.934 228.585 471.934 219.152C471.934 209.718 479.441 204.642 496.13 201.239C514.511 197.621 521.046 192.058 523.944 186.009V196.648V196.666Z" fill="#7FC8FF"/>
<path d="M641.52 126.242C622.167 126.242 611.059 136.63 604.02 151.158V129.627H573.541V254.711H604.74V198.578C604.74 168.099 616.118 153.337 632.807 153.337C650.719 153.337 655.544 167.613 655.544 185.76V254.711H686.509V178.253C686.509 147.54 673.925 126.242 641.502 126.242H641.52Z" fill="#7FC8FF"/>
<path d="M932.197 106.398C955.655 106.398 971.623 115.831 980.823 136.157H1012.76C1002.12 100.835 975.494 78.8174 932.197 78.8174C879.701 78.8174 844.127 116.101 844.127 168.58C844.127 221.058 879.449 257.856 931.945 257.838C974.774 257.838 1004.05 234.867 1012.76 200.499H980.589C973.568 218.88 958.571 230.258 932.197 230.258C898.802 230.258 876.55 204.136 876.55 168.58C876.55 133.024 898.568 106.416 932.197 106.416V106.398Z" fill="#7FC8FF"/>
<path d="M1410.98 126.231C1391.63 126.231 1380.52 136.619 1373.48 151.147V129.616H1343V254.7H1374.2V198.567C1374.2 168.088 1385.58 153.326 1402.27 153.326C1420.16 153.326 1425.01 167.602 1425.01 185.749V254.7H1455.97V178.242C1455.97 147.529 1443.39 126.231 1410.96 126.231H1410.98Z" fill="#7FC8FF"/>
<path d="M1321.96 92.7168H1289.79V121.755H1321.96V92.7168Z" fill="#7FC8FF"/>
<path d="M1290.28 151.275V254.684H1321.48V129.6H1311.93C1299.96 129.6 1290.28 139.303 1290.28 151.275Z" fill="#7FC8FF"/>
<path d="M1098.4 126.203C1079.05 126.203 1067.94 136.609 1060.9 150.885V81.9521H1030.43V254.654H1061.62V198.521C1061.62 168.042 1073 153.28 1089.69 153.28C1107.6 153.28 1112.43 167.556 1112.43 185.703V254.654H1143.39V178.196C1143.39 147.483 1130.81 126.185 1098.39 126.185L1098.4 126.203Z" fill="#7FC8FF"/>
<path d="M1269.95 178.988C1269.95 148.257 1255.44 125.753 1216.23 125.753C1183.32 125.753 1166.19 147.32 1162.57 167.862H1191.84C1194.99 156.25 1204.19 148.995 1216.52 148.995C1230.78 148.995 1239.49 154.792 1239.49 164.711C1239.49 175.351 1231.75 177.781 1215.55 180.194C1198.12 182.84 1157 186.225 1157 220.592C1157 241.638 1173.46 258.092 1200.79 258.092C1224.5 258.092 1234.9 245.508 1239.98 235.607H1240.21V241.89C1240.21 245.994 1240.45 250.603 1241.19 254.708H1272.38C1270.69 246.714 1269.97 233.896 1269.97 224.229V178.988H1269.95ZM1239.94 196.666C1239.94 225.705 1225.2 235.121 1209.23 235.121C1195.21 235.121 1187.93 228.585 1187.93 219.152C1187.93 209.718 1195.44 204.642 1212.13 201.239C1230.51 197.621 1237.04 192.058 1239.94 186.009V196.648V196.666Z" fill="#7FC8FF"/>
<path d="M350.386 197.333V81.9521H319.043V219.098H328.621C340.646 219.098 350.386 209.359 350.386 197.333Z" fill="#7FC8FF"/>
<path d="M431.219 227H319.043V254.706H431.219V227Z" fill="#7FC8FF"/>
</g>
<g clip-path="url(#clip1_4061_38109)">
<path d="M112.339 193.457C125.901 179.895 133.524 161.481 133.524 142.303C133.524 123.125 125.894 104.71 112.339 91.1481L61.1855 40C47.6302 53.5622 40 71.9766 40 91.1547C40 110.333 47.6302 128.747 61.1855 142.309L112.332 193.457H112.339Z" fill="#7FC8FF"/>
<path d="M219.382 198.19C205.827 184.634 187.406 177.004 168.235 177.004C149.064 177.004 130.644 184.634 117.082 198.19L168.235 249.345C181.791 262.9 200.211 270.531 219.388 270.531C238.566 270.531 256.98 262.9 270.542 249.345L219.388 198.19H219.382Z" fill="#7FC8FF"/>
<path d="M61.319 249.23C74.8808 262.786 93.2947 270.416 112.472 270.416V198.075H40.127C40.1335 217.253 47.7571 235.668 61.319 249.23Z" fill="#7FC8FF"/>
<path d="M239.118 122.563C225.556 109.007 207.142 101.37 187.958 101.377C168.78 101.377 150.367 109.007 136.805 122.57L187.958 173.724L239.118 122.563Z" fill="#7FC8FF"/>
</g>
<defs>
<clipPath id="clip0_4061_38109">
<rect width="1136.96" height="222.336" fill="white" transform="translate(319.043 78.8174)"/>
</clipPath>
<clipPath id="clip1_4061_38109">
<rect width="230.532" height="230.532" fill="white" transform="translate(40 40)"/>
</clipPath>
</defs>
</svg>
